<?xml version="1.0" encoding="utf-8"?>
<!-- Generator: Adobe Illustrator 21.0.0, SVG Export Plug-In . SVG Version: 6.00 Build 0)  -->
<svg version="1.1" id="watch_x5F_1" xmlns="http://www.w3.org/2000/svg" xmlns:xlink="http://www.w3.org/1999/xlink" x="0px"
	 y="0px" viewBox="0 0 234.2 234.2" style="enable-background:new 0 0 234.2 234.2;" xml:space="preserve">
<g style="fill:#C0AF9F;">
	<polygon points="122.5,117.8 122.5,92 113.9,92 113.9,121.4 128,135.7 134.1,129.5 	"/>
	<path d="M160,108.2c-2-9.7-7.3-18.2-14.7-24.3V48.3H90.8v35.6c-9.5,7.9-15.6,19.8-15.6,33.1s6.1,25.3,15.6,33.1v35.6h54.6v-35.6
		c7.4-6.1,12.7-14.6,14.7-24.3h9.6v-17.6H160z M118.2,150.9c-18.5,0-33.4-15-33.4-33.4c0-18.5,15-33.4,33.4-33.4s33.4,15,33.4,33.4
		C151.7,135.9,136.7,150.9,118.2,150.9z"/>
</g>
</svg>